<svg width="123" height="123" viewBox="0 0 123 123" fill="none" xmlns="http://www.w3.org/2000/svg">
<path fill-rule="evenodd" clip-rule="evenodd" d="M50.365 3.64848C49.885 4.28848 49.785 5.26848 49.185 5.77848C46.575 7.96848 43.025 4.49848 44.165 1.71848C44.905 -0.081519 48.395 -0.231519 49.515 1.19848C49.985 1.79848 50.065 2.92848 50.365 3.64848ZM74.295 0.258481C77.905 -0.781519 80.235 4.56848 76.795 6.00848C72.555 7.78848 70.245 1.41848 74.295 0.258481ZM19.235 12.6085C27.275 12.6385 26.575 25.7085 18.565 25.1585C10.735 24.6285 11.205 12.5785 19.235 12.6085ZM47.235 12.6085C53.765 12.6285 55.785 23.4785 49.165 25.0185C39.745 27.1985 38.025 12.5685 47.235 12.6085ZM75.235 12.5985C82.035 12.5985 84.015 23.4385 77.175 25.0185C67.975 27.1485 66.265 12.5985 75.235 12.5985ZM103.265 12.5485C110.055 11.5785 112.105 23.4085 105.175 25.0285C96.395 27.0685 94.325 13.8185 103.265 12.5485ZM45.275 34.5585C58.335 32.6785 60.965 55.9685 45.895 56.3785C32.035 56.7685 30.465 36.6985 45.275 34.5585ZM76.265 34.5585C89.415 32.3685 92.575 55.9585 76.895 56.3885C63.175 56.7685 62.075 36.9085 76.265 34.5585ZM18.275 40.9385C26.385 40.2885 27.655 52.7085 19.435 53.3185C11.705 53.8885 10.415 41.5685 18.275 40.9385ZM102.265 40.9285C109.265 40.2485 112.825 49.9985 105.915 52.8885C97.295 56.4885 93.745 41.7485 102.265 40.9285ZM0.125 46.6485C3.355 42.3685 7.985 44.4385 6.295 48.5685C5.555 50.3685 2.075 50.5085 0.965 49.0885C0.505 48.4885 0.425 47.3685 0.125 46.6485ZM119.235 43.9485C123.655 43.9485 122.795 50.7985 118.235 50.1585C114.555 49.6385 115.555 43.9485 119.235 43.9485ZM45.275 65.9385C60.155 64.7085 59.595 89.5485 44.585 87.7585C31.405 86.1885 31.475 67.0685 45.275 65.9385ZM76.265 65.9285C90.585 64.7985 91.085 87.0785 76.895 87.7685C63.495 88.4185 62.015 67.0485 76.265 65.9285ZM103.235 68.9485C111.055 68.9485 111.695 81.1885 103.905 81.3985C95.675 81.6085 95.005 68.9585 103.235 68.9485ZM17.285 69.2685C25.325 67.8585 28.335 78.7985 21.155 81.0285C12.935 83.5785 9.465 70.6385 17.285 69.2685ZM2.315 72.2785C5.975 71.1885 8.335 76.5085 4.775 77.9985C0.595002 79.7385 -1.565 73.4285 2.315 72.2785ZM122.385 75.6485C119.635 79.2585 114.355 78.5985 116.145 73.7185C117.675 69.5285 121.345 73.1685 122.385 75.6485ZM17.315 97.2785C24.335 95.1885 28.445 106.208 21.775 108.998C13.825 112.308 8.975 99.7585 17.315 97.2785ZM45.315 97.2885C52.375 95.6685 56.825 106.088 49.775 108.998C41.555 112.388 37.175 99.1585 45.315 97.2885ZM73.305 97.2785C82.265 95.2085 84.535 108.448 75.445 109.658C68.565 110.578 66.525 98.8585 73.305 97.2785ZM101.305 97.2785C108.445 95.6385 113.465 106.078 106.155 109.028C97.455 112.538 93.745 99.0185 101.305 97.2785ZM46.305 115.948C50.155 115.198 51.815 120.978 48.155 122.028C43.925 123.238 42.285 116.738 46.305 115.948ZM78.625 118.648C77.825 121.728 72.875 123.958 72.155 119.608C71.355 114.728 76.635 115.418 78.625 118.648Z" fill="#2892D7" stroke="#2892D7" stroke-width="0.25" stroke-linejoin="round"/>
</svg>
